# xmcd
#
# Track frame offsets:
#	151
#	23192
#	40143
#	56040
#	78469
#	98318
#	115945
#	132974
#	152877
#	170232
# Disc length: 2648 seconds
# Revision: 1
# Processed by: cddbd v1.5.1PL2 Copyright (c) Steve Scherf et al.
#
# Submitted via: libkcddb 0.21
#
DISCID=7d0a560a
DTITLE=The Slackdaddies - The Slackdaddies
DYEAR=2006
DGENRE=Blues
TTITLE0=Bullfrog Blues
TTITLE1=Love Train
TTITLE2=Soul Kitchen
TTITLE3=Little Sister
TTITLE4=Some Kind of Wonderful
TTITLE5=Ping Cadillac
TTITLE6=Satisfaction
TTITLE7=Gimme Some Lovin'
TTITLE8=Time is On My Side
TTITLE9=Let It Bleed
EXTD=
EXTT0=
EXTT1=
EXTT2=
EXTT3=
EXTT4=
EXTT5=
EXTT6=
EXTT7=
EXTT8=
EXTT9=
PLAYORDER=
